<?xml version="1.0" encoding="utf-8"?>
<!-- Generator: Adobe Illustrator 24.0.3, SVG Export Plug-In . SVG Version: 6.00 Build 0)  -->
<svg version="1.1" id="Layer_1" xmlns="http://www.w3.org/2000/svg" xmlns:xlink="http://www.w3.org/1999/xlink" x="0px" y="0px"
	 viewBox="0 0 80 80" style="enable-background:new 0 0 80 80;" xml:space="preserve">
<style type="text/css">
	.st0{fill:#FFFFFF;}
</style>
<title>learn</title>
<path class="st0" d="M6.94,19.58c0.13-0.48,0.29-0.95,0.48-1.41c0.7-1.42,2.12-2.34,3.7-2.4h0.2v2.13
	c-0.31,0.06-0.62,0.16-0.91,0.28c-0.77,0.33-1.26,1.09-1.26,1.92v33.1h61.7V20.34c0.08-0.99-0.52-1.92-1.46-2.25
	c-0.24-0.07-0.48-0.13-0.72-0.17v-2.15c0.6-0.01,1.2,0.12,1.75,0.37c1.66,0.71,2.71,2.37,2.63,4.17c0,3.24,0,6.48,0,9.73v27.5
	c0.04,2.07-1.37,3.89-3.39,4.36c-0.41,0.1-0.84,0.15-1.26,0.14H47l0.46,1.54c0.7,2.34,1.41,4.67,2.1,7c0.06,0.2,0.14,0.25,0.35,0.25
	h2.21v2.21H27.88v-2.19h2.48l2.64-8.8H11.52c-1.88,0.06-3.59-1.07-4.28-2.82c-0.13-0.35-0.2-0.73-0.3-1.09V19.58z M9.17,55.45
	c0,0.85,0,1.68,0,2.51c0.02,0.21,0.08,0.42,0.19,0.6c0.39,0.84,1.26,1.35,2.18,1.28c18.97,0,37.94,0,56.9,0h0.27
	c1.16-0.03,2.1-0.97,2.13-2.13c0-0.55,0-1.1,0-1.64v-0.61L9.17,55.45z M47.31,70.84c0-0.08,0-0.12,0-0.16
	c-0.84-2.82-1.69-5.63-2.53-8.45c0-0.16-0.14-0.18-0.28-0.18h-8.97c-0.14-0.02-0.27,0.08-0.29,0.22l-2.49,8.32
	c0,0.08,0,0.16-0.07,0.26L47.31,70.84z"/>
<path class="st0" d="M66.44,51h-2.2v-0.38c0-13.02,0-26.04,0-39.06c0.04-0.71-0.24-1.39-0.76-1.87c-0.36-0.33-0.83-0.52-1.32-0.53
	h-44c-0.75-0.05-1.48,0.27-1.94,0.87c-0.28,0.34-0.43,0.75-0.45,1.19V51h-2.22V11.2c0.07-2.12,1.66-3.89,3.76-4.2
	c0.29-0.01,0.58-0.01,0.87,0h43.74c2.43-0.06,4.46,1.86,4.52,4.3c0,0.06,0,0.12,0,0.18c0,0.67,0,1.34,0,2
	C66.44,13.48,66.44,51,66.44,51z"/>
<path class="st0" d="M62,15.78v2.15H18v-2.15H62z"/>
<path class="st0" d="M40,31.18h-4.44c-1.18,0.01-2.15-0.94-2.17-2.12c0-2.27,0-4.55,0-6.82c0.05-1.15,0.99-2.06,2.14-2.07
	c0.81,0,1.62,0,2.43,0h6.3c1.21-0.09,2.26,0.83,2.35,2.04c0.01,0.1,0.01,0.2,0,0.3c0,2.12,0,4.23,0,6.35
	c0.03,1.25-0.96,2.3-2.21,2.33c-0.04,0-0.08,0-0.12,0C42.85,31.14,41.41,31.18,40,31.18z M44.4,28.98V22.4h-8.79V29L44.4,28.98z"/>
<path class="st0" d="M40,44.4h-4.42c-1.19,0.02-2.17-0.94-2.19-2.13c0,0,0,0,0,0c0-2.26,0-4.53,0-6.79
	c0.05-1.17,1.01-2.09,2.18-2.09h8.7c1.21-0.08,2.26,0.84,2.34,2.05c0.01,0.09,0.01,0.19,0,0.28c0,2.13,0,4.25,0,6.38
	c0.02,1.25-0.98,2.29-2.23,2.31c-0.03,0-0.06,0-0.09,0C42.87,44.37,41.43,44.4,40,44.4z M35.62,35.61v6.58h8.77v-6.58H35.62z"/>
<path class="st0" d="M24.57,31.18H20.2c-1.18,0.04-2.16-0.88-2.2-2.06c0-0.04,0-0.08,0-0.12c0-2.26,0-4.52,0-6.77
	c0.04-1.15,0.97-2.07,2.12-2.09c2.99,0,5.99,0,9,0c1.15,0.01,2.09,0.94,2.11,2.09c0,1.54,0,3.08,0,4.63c0,0.67,0,1.34,0,2
	c0.03,1.23-0.93,2.25-2.16,2.28c-0.05,0-0.09,0-0.14,0C27.44,31.14,26,31.18,24.57,31.18z M20.18,22.39V29H29v-6.61H20.18z"/>
<path class="st0" d="M24.58,44.4c-1.45,0-2.89,0-4.34,0c-1.24,0-2.24-1-2.24-2.24c0-0.01,0-0.02,0-0.03c0-1.75,0-3.51,0-5.26v-1.19
	c-0.05-1.22,0.91-2.25,2.13-2.29c0.06,0,0.12,0,0.18,0h8.59c1.2-0.08,2.24,0.83,2.32,2.03c0.01,0.09,0.01,0.17,0,0.26
	c0,2.16,0,4.32,0,6.48c0.05,1.19-0.88,2.2-2.08,2.24c-0.06,0-0.12,0-0.17,0H24.58z M29,35.62h-8.82v6.58H29V35.62z"/>
<path class="st0" d="M55.41,31.18H51c-1.18,0.02-2.15-0.93-2.17-2.11c0,0,0,0,0,0c0-2.28,0-4.56,0-6.85c0.08-1.11,0.98-1.97,2.09-2
	c0.61,0,1.22,0,1.83,0c2.31,0,4.62,0,6.92,0c1.25-0.03,2.3,0.96,2.33,2.21c0,0.02,0,0.05,0,0.07c0,2.13,0,4.25,0,6.38
	c0.03,1.24-0.95,2.28-2.19,2.31c-0.04,0-0.09,0-0.13,0C58.29,31.14,56.85,31.18,55.41,31.18z M51,22.39V29h8.78v-6.61H51z"/>
<path class="st0" d="M55.43,44.4H51c-1.16,0.02-2.12-0.91-2.15-2.07c0-2.3,0-4.6,0-6.9c0.08-1.12,1.01-1.99,2.13-2h8.73
	c1.22-0.05,2.24,0.91,2.29,2.13c0,0.05,0,0.11,0,0.16c0,2.13,0,4.26,0,6.4c0.03,1.24-0.95,2.26-2.19,2.29c-0.04,0-0.07,0-0.11,0
	C58.3,44.37,56.86,44.4,55.43,44.4z M59.82,42.2v-6.58H51v6.58H59.82z"/>
<path class="st0" d="M46.61,51H44.4v-2.16h-8.79V51h-2.22v-0.4c0-0.59,0-1.18,0-1.77c-0.02-1.2,0.95-2.19,2.15-2.21
	c0.01,0,0.03,0,0.04,0h8.7c1.22-0.07,2.26,0.87,2.33,2.08c0,0.08,0,0.16,0,0.24V51z"/>
<path class="st0" d="M31.18,51H29v-2.16h-8.83V51H18v-0.55c0-0.64,0-1.29,0-1.92c0.12-1.09,1.05-1.92,2.15-1.91h8.7
	c1.21-0.08,2.26,0.84,2.34,2.05c0.01,0.09,0.01,0.19,0,0.28L31.18,51z"/>
<path class="st0" d="M51,48.84V51h-2.2v-0.84c0-0.45,0-0.9,0-1.35c-0.02-1.19,0.92-2.17,2.11-2.19c0.03,0,0.06,0,0.09,0
	c1.18,0,2.36,0,3.54,0h5.15c1.2-0.08,2.23,0.83,2.31,2.02c0,0.02,0,0.04,0,0.07c0,0.75,0,1.51,0,2.28h-2.16v-2.15H51z"/>
<path class="st0" d="M20.15,13.55H18v-2.19h2.18L20.15,13.55z"/>
<path class="st0" d="M26.79,11.36H29v2.18h-2.21V11.36z"/>
<path class="st0" d="M22.39,13.54v-2.19h2.16v2.19L22.39,13.54z"/>
</svg>
