<?xml version="1.0" encoding="utf-8"?>
<!-- Generator: Adobe Illustrator 24.0.3, SVG Export Plug-In . SVG Version: 6.00 Build 0)  -->
<svg version="1.1" id="Layer_1" xmlns="http://www.w3.org/2000/svg" xmlns:xlink="http://www.w3.org/1999/xlink" x="0px" y="0px"
	 viewBox="0 0 80 80" style="enable-background:new 0 0 80 80;" xml:space="preserve">
<style type="text/css">
	.st0{fill:#FFFFFF;}
</style>
<title>see</title>
<path class="st0" d="M23.1,48.4l-4.5-1.3c1.9-6.5,6.6-11.8,12.8-14.5c-5.5-4.7-6.1-12.9-1.5-18.3s12.9-6.1,18.3-1.5
	s6.1,12.9,1.5,18.3c-0.4,0.5-0.8,0.9-1.3,1.3c6.3,2.6,11.1,7.9,13.1,14.4L57,48.3c-3.2-8.3-9-12.8-18-12.5
	C31.5,36.2,25.2,41.3,23.1,48.4z M39.8,14.4c-4.6,0-8.3,3.7-8.3,8.3s3.7,8.3,8.3,8.3c4.5,0,8.2-3.7,8.3-8.2
	C48.1,18.2,44.4,14.4,39.8,14.4L39.8,14.4z"/>
<g>
	<path class="st0" d="M35.7,66.3c0.2-1.1,0.4-2.3,0.6-3.4c0.2-0.5,0.2-1,0.2-1.5c-0.1-0.4-0.7-0.7-1-1.1l-2.3-2.5L33,57.9
		c0.1,0,0.2-0.1,0.2-0.1c1.4-0.2,2.9-0.4,4.3-0.6c0.2-0.1,0.4-0.2,0.5-0.4c0.7-1.3,1.3-2.7,2.1-4.1c0.1,0.2,0.2,0.3,0.2,0.4
		c0.6,1.2,1.2,2.4,1.8,3.7c0.1,0.2,0.3,0.4,0.6,0.4c1.4,0.2,2.9,0.4,4.3,0.6c0.1,0,0.1,0,0.2,0c-0.5,0.5-0.9,1-1.4,1.5
		c-0.5,0.5-1.1,1.1-1.7,1.7c-0.3,0.2-0.4,0.5-0.3,0.8c0.3,1.4,0.5,2.8,0.7,4.1c0,0.1,0,0.2,0,0.3h-0.1c0,0,0-0.1,0-0.1
		c-1.4-0.7-2.7-1.4-4.1-2.2c-0.2,0-0.3,0-0.5,0.1c-1.2,0.6-2.4,1.2-3.6,1.9C36.1,66.1,35.9,66.2,35.7,66.3L35.7,66.3z"/>
	<path class="st0" d="M18.3,57.8c-1.1,1.1-2.2,2.2-3.3,3.2c-0.2,0.2-0.3,0.6-0.2,0.9c0.3,1.4,0.5,2.7,0.7,4.1c0,0.1,0,0.2,0,0.3
		l-1.9-1c-0.7-0.4-1.4-0.7-2.2-1.1c-0.2-0.1-0.5-0.1-0.7,0c-1.2,0.6-2.4,1.3-3.6,1.9l-0.5,0.2c0.1-0.8,0.3-1.6,0.4-2.3
		c0.1-0.8,0.2-1.4,0.4-2.2c0.1-0.3,0-0.5-0.2-0.7c-1-0.9-2-1.9-3-2.9l-0.3-0.3l3-0.5c0.5-0.1,1.1-0.2,1.6-0.2c0.2,0,0.4-0.2,0.5-0.4
		c0.6-1.2,1.2-2.4,1.8-3.6c0.1-0.1,0.1-0.3,0.2-0.5c0.1,0.1,0.1,0.2,0.2,0.3c0.6,1.3,1.2,2.5,1.9,3.8c0.1,0.2,0.3,0.4,0.5,0.4
		C15.1,57.3,16.7,57.6,18.3,57.8z"/>
	<path class="st0" d="M21.1,66.2c0.2-1.2,0.4-2.3,0.6-3.4c0.2-0.5,0.3-1,0.2-1.5c-0.1-0.4-0.7-0.7-1-1.1c-0.8-0.8-1.6-1.7-2.3-2.5
		l1.9-0.3c0.9-0.1,1.7-0.2,2.6-0.4c0.2-0.1,0.4-0.2,0.5-0.4c0.6-1.2,1.2-2.4,1.8-3.6l0.3-0.5c0.1,0.2,0.2,0.3,0.2,0.4
		c0.6,1.2,1.2,2.4,1.8,3.7c0.1,0.2,0.3,0.4,0.6,0.4c1.4,0.2,2.9,0.4,4.3,0.6c0.1,0,0.1,0,0.2,0.1c-0.1,0.1-0.2,0.2-0.3,0.3
		c-1,0.9-1.9,1.9-2.9,2.9c-0.2,0.2-0.3,0.5-0.3,0.8c0.3,1.4,0.5,2.8,0.7,4.1c0,0.1,0,0.2,0,0.3l-0.8-0.4c-1.1-0.6-2.2-1.1-3.2-1.7
		c-0.2-0.1-0.5-0.1-0.7,0C23.9,64.8,22.6,65.5,21.1,66.2z"/>
	<path class="st0" d="M64.6,66.3c0.2-1.1,0.4-2.3,0.6-3.4c0.2-0.5,0.2-1,0.2-1.5c-0.1-0.4-0.7-0.7-1-1.1L62,57.8l-0.1,0.1
		c0.1,0,0.2-0.1,0.2-0.1c1.4-0.2,2.9-0.4,4.3-0.6c0.2-0.1,0.4-0.2,0.5-0.4c0.7-1.3,1.3-2.7,2.1-4.1c0.1,0.2,0.2,0.3,0.2,0.4
		c0.6,1.2,1.2,2.4,1.8,3.7c0.1,0.2,0.3,0.4,0.6,0.4c1.4,0.2,2.9,0.4,4.3,0.6c0.1,0,0.1,0,0.2,0c-0.5,0.5-0.9,1-1.4,1.5
		c-0.5,0.5-1.1,1.1-1.7,1.7c-0.3,0.2-0.4,0.5-0.3,0.8c0.3,1.4,0.5,2.8,0.7,4.1c0,0.1,0,0.2,0,0.3h-0.1c0,0,0-0.1,0-0.1
		c-1.4-0.7-2.7-1.4-4.1-2.2c-0.2,0-0.3,0-0.5,0.1c-1.2,0.6-2.4,1.2-3.6,1.9C64.9,66.1,64.8,66.2,64.6,66.3L64.6,66.3z"/>
	<path class="st0" d="M50,66.2c0.2-1.2,0.4-2.3,0.6-3.4c0.2-0.5,0.3-1,0.2-1.5c-0.1-0.4-0.7-0.7-1-1.1c-0.8-0.8-1.6-1.7-2.3-2.5
		l1.9-0.3c0.9-0.1,1.7-0.2,2.6-0.4c0.2-0.1,0.4-0.2,0.5-0.4c0.6-1.2,1.2-2.4,1.8-3.6l0.3-0.5c0.1,0.2,0.2,0.3,0.2,0.4
		c0.6,1.2,1.2,2.4,1.8,3.7c0.1,0.2,0.3,0.4,0.6,0.4c1.4,0.2,2.9,0.4,4.3,0.6c0.1,0,0.1,0,0.2,0.1c-0.1,0.1-0.2,0.2-0.3,0.3
		c-1,0.9-1.9,1.9-2.9,2.9c-0.2,0.2-0.3,0.5-0.3,0.8c0.3,1.4,0.5,2.8,0.7,4.1c0,0.1,0,0.2,0,0.3l-0.8-0.4c-1.1-0.6-2.2-1.1-3.2-1.7
		c-0.2-0.1-0.5-0.1-0.7,0C52.8,64.8,51.4,65.5,50,66.2z"/>
</g>
</svg>
