<?xml version="1.0" encoding="utf-8"?>
<!-- Generator: Adobe Illustrator 24.0.3, SVG Export Plug-In . SVG Version: 6.00 Build 0)  -->
<svg version="1.1" id="Layer_1" xmlns="http://www.w3.org/2000/svg" xmlns:xlink="http://www.w3.org/1999/xlink" x="0px" y="0px"
	 viewBox="0 0 80 80" style="enable-background:new 0 0 80 80;" xml:space="preserve">
<style type="text/css">
	.st0{fill:#FFFFFF;}
</style>
<title>Try</title>
<path class="st0" d="M68.83,10.67c1.1,0.35,2.16,0.82,3.17,1.39c1.78,1.27,2.78,3.37,2.67,5.55v34c0,1.12-0.51,1.73-1.37,1.71
	S72,52.66,72,51.51V18.13c0-0.37,0-0.73,0-1.09c-0.15-1.96-1.7-3.52-3.66-3.68c-0.33,0-0.67,0-1,0H12.73C9.48,13.34,8,14.82,8,18.07
	v37.84h40V55c0-4.41,0-8.82,0-13.23c0-1.37,0.42-1.79,1.79-1.79h8.87v-0.83c0-1.86,0-3.71,0-5.57c0-1.09,0.49-1.58,1.58-1.59h7.33
	c1.31,0,1.75,0.44,1.76,1.74V56h8.94c1.26,0,1.71,0.45,1.72,1.69c0,1.58,0,3.16,0,4.75c0.1,3.69-2.81,6.77-6.51,6.87
	c-0.11,0-0.22,0-0.32,0c-3.86,0-7.72,0-11.58,0c-1,0-1.56-0.5-1.58-1.33s0.6-1.32,1.58-1.32h11.17c3,0,4.57-1.56,4.58-4.56v-3.41
	h-28c0,1.2,0,2.38,0,3.56S48.85,64,47.61,64H32.36c-1.09,0-1.71-0.52-1.69-1.39s0.64-1.27,1.72-1.27H46.6v-2.66h-44
	c-0.02,1.75,0.1,3.5,0.36,5.23c0.4,1.57,1.8,2.68,3.42,2.69c0.36,0.02,0.72,0.02,1.08,0H55.2c0.33-0.03,0.67-0.03,1,0
	c0.64,0.06,1.13,0.61,1.1,1.26c0.06,0.67-0.44,1.27-1.11,1.34c-0.33,0.02-0.67,0.02-1,0c-15.72,0-31.44-0.06-47.16,0
	c-4.23,0-7.19-1.85-8-5.87V56.8c0.44-0.6,1.17-0.91,1.9-0.8c1.12,0,2.25,0,3.4,0V17.84c-0.06-1.73,0.5-3.42,1.58-4.78
	c1.11-1.26,2.61-2.1,4.26-2.39L68.83,10.67z M55.14,51.3c-0.76-2.52-0.39-4.1,1.22-5.26c1.38-0.92,3.17-0.92,4.55,0
	c1.63,1.13,2,2.72,1.27,5.32c1.75,1,1.88,2.82,1.83,4.61h2.6V42.71H50.7v13.2h2.64C53.22,54.05,53.45,52.36,55.14,51.3z
	 M61.37,39.92h5.23v-5.23h-5.23V39.92z M61.37,55.92V55c0-1.25-0.46-1.7-1.7-1.71c-0.75,0-1.5,0-2.24,0
	c-0.69-0.1-1.33,0.38-1.42,1.07c0,0.02,0,0.03-0.01,0.05c-0.05,0.51-0.05,1.01,0,1.52L61.37,55.92z M60,49.29
	c0-0.73-0.59-1.32-1.32-1.32s-1.32,0.59-1.32,1.32c0,0,0,0,0,0c0,0.73,0.59,1.32,1.32,1.32S60,50.02,60,49.29
	C60,49.29,60,49.29,60,49.29z"/>
<path class="st0" d="M53.33,20h-38.6v28h28.6c1.36,0,2,0.43,2,1.34s-0.62,1.33-2,1.33H14c-1.64,0-2-0.37-2-2V19.24
	c0-1.52,0.38-1.91,1.92-1.91h40.15c1.54,0,1.92,0.39,1.92,1.92c0,5.38,0,10.76,0,16.14c0.03,0.25,0.03,0.5,0,0.75
	c-0.09,0.72-0.74,1.23-1.46,1.14c-0.6-0.07-1.06-0.54-1.14-1.14c-0.02-0.28-0.02-0.55,0-0.83V20H53.33z"/>
<path class="st0" d="M33.3,44c-5.23-0.02-9.66-3.84-10.47-9c-0.89-5.33,2.39-10.48,7.61-11.9c4.01-1.29,8.4,0.06,11,3.38
	C44.38,30,44.77,34,42.85,38.11c-0.2,0.64-0.82,1.06-1.49,1c-0.61-0.04-1.1-0.54-1.11-1.16c0.02-0.44,0.14-0.87,0.35-1.25
	c1.85-4.01,0.1-8.76-3.91-10.62c-4.01-1.85-8.76-0.1-10.62,3.91c-1.7,3.68-0.38,8.05,3.07,10.17c2.24,1.44,5.07,1.62,7.48,0.47
	c0.18-0.08,0.35-0.18,0.53-0.25c0.65-0.32,1.44-0.06,1.78,0.58c0.33,0.6,0.11,1.36-0.49,1.7c-0.04,0.02-0.08,0.04-0.13,0.06
	c-1.34,0.51-2.73,0.87-4.11,1.26C33.91,44.02,33.6,44.03,33.3,44z"/>
<path class="st0" d="M66.66,20h-5.27v5.29h3.54c1.09,0,1.75,0.53,1.72,1.36S66,28,64.94,28c-1.52,0-3,0-4.58,0
	c-1.22,0-1.69-0.49-1.7-1.73V19c0-1.19,0.48-1.68,1.66-1.68c2.46,0,4.93,0,7.4,0c0.76-0.12,1.47,0.39,1.6,1.15
	c0.02,0.14,0.02,0.28,0,0.42c0,1.19,0,2.39,0,3.58c0.09,0.75-0.43,1.43-1.18,1.52C68.09,24,68.05,24,68,24
	c-0.76-0.03-1.35-0.67-1.33-1.43c0-0.03,0-0.05,0.01-0.08C66.65,21.67,66.66,20.87,66.66,20z"/>
<path class="st0" d="M29.33,33.31c0-1.05,0-2.1,0-3.15c-0.1-0.72,0.4-1.39,1.12-1.49c0.31-0.04,0.62,0.02,0.88,0.18
	c2.19,1.07,4.37,2.17,6.52,3.3c0.65,0.27,0.97,1.01,0.7,1.67c-0.13,0.32-0.38,0.57-0.7,0.7c-2.19,1.14-4.39,2.24-6.61,3.31
	c-0.63,0.35-1.43,0.12-1.78-0.52c-0.11-0.21-0.17-0.44-0.16-0.67c0-1.11,0-2.22,0-3.33L29.33,33.31z M34.33,33.31l-2.29-1.14v2.28
	L34.33,33.31z"/>
<path class="st0" d="M9.32,64c-0.73-0.06-1.27-0.71-1.21-1.44c0.06-0.64,0.57-1.15,1.21-1.21c0.72,0.04,1.29,0.62,1.32,1.34
	C10.6,63.4,10.03,63.97,9.32,64z"/>
<path class="st0" d="M16,62.66c-0.02,0.73-0.63,1.32-1.36,1.3c-0.73-0.02-1.32-0.63-1.3-1.36c0.02-0.73,0.63-1.32,1.36-1.3
	C15.42,61.34,15.99,61.94,16,62.66z"/>
<path class="st0" d="M66.65,62.59c0.02,0.73-0.56,1.35-1.29,1.37c-0.73,0.02-1.35-0.56-1.37-1.29c-0.02-0.73,0.56-1.35,1.29-1.37
	c0,0,0.01,0,0.01,0C66.01,61.31,66.6,61.87,66.65,62.59z"/>
<path class="st0" d="M72,62.59c0.02,0.73-0.56,1.33-1.29,1.35c-0.73,0.02-1.33-0.56-1.35-1.29c-0.02-0.73,0.56-1.33,1.29-1.35
	C71.37,61.31,71.95,61.87,72,62.59z"/>
</svg>
